<svg
  width="1080"
  height="1080"
  viewBox="0 0 1080 1080"
  fill="none"
  xmlns="http://www.w3.org/2000/svg">
  <style>
    #kanji {
      fill: #472183
    }

    @media (prefers-color-scheme: dark) {
      #kanji {
        fill: #4B56D2
      }
    }
  </style>
  <path
    id="kanji"
    d="M572.269 23.7893C544.713 8.7808 505.895 0.848565 455.813 0C446.61 0 444.941 3.7632 450.79 11.2748C503.391 43.8007 531.36 73.4193 534.691 100.116C530.511 107.613 524.676 113.863 517.172 118.858C510.496 123.876 496.714 129.307 475.842 135.151C451.618 140.98 429.077 146.809 408.22 152.653C404.039 153.48 402.37 155.568 403.197 158.91C404.025 162.26 407.363 163.928 413.212 163.928C441.61 164.754 470.835 164.754 500.894 163.928C519.248 163.928 536.774 165.596 553.48 168.916C548.473 168.916 543.886 169.329 539.713 170.156C487.933 181.017 441.174 193.119 399.446 206.46C354.364 219.8 309.695 236.477 265.441 256.488C218.682 276.522 175.691 291.545 136.458 301.558C124.759 304.886 120.158 309.055 122.662 314.072C126.007 319.075 139.368 334.084 162.751 359.113C176.104 374.955 189.457 376.615 202.811 364.101C226.186 341.595 253.742 321.997 285.471 305.306C313.868 291.124 348.935 277.355 390.671 264.014C430.746 249.832 484.181 236.905 550.969 225.231C616.095 213.543 669.117 206.452 710.026 203.951C748.431 201.457 796.024 203.124 852.805 208.968C896.21 212.296 926.262 214.798 942.969 216.465C956.322 217.292 961.329 212.289 958.006 201.442C951.307 184.758 944.209 172.251 936.706 163.928C929.18 154.741 922.082 148.064 915.405 143.887C907.902 139.718 901.225 136.803 895.376 135.151C878.669 130.133 857.798 129.299 832.745 132.642C796.009 137.645 753.431 142.227 705.004 146.396C674.944 148.897 646.14 152.653 618.592 157.671C621.938 152.653 624.449 147.65 626.125 142.647C629.449 125.964 629.449 108.439 626.125 90.0807C619.449 63.3989 601.494 41.3067 572.269 23.7893ZM638.651 264.014C566.014 289.043 496.293 309.896 429.49 326.557C420.31 312.39 419.062 301.55 425.738 294.031C431.588 286.535 433.257 281.539 430.761 279.038C428.257 277.37 423.242 279.864 415.723 286.535C404.039 296.555 396.528 309.896 393.183 326.557C389.002 344.089 389.844 364.949 395.694 389.13C404.039 414.159 406.957 434.598 404.438 450.433C401.934 468.792 404.446 487.143 411.972 505.479C420.317 526.339 432.422 542.189 448.279 553.028C459.129 563.049 466.64 568.052 470.82 568.052C474.166 568.052 477.504 564.716 480.835 558.046C483.354 551.375 482.94 540.949 479.594 526.76C540.548 506.748 607.757 499.244 681.222 504.239C689.568 505.066 693.748 500.484 693.748 490.485C693.748 483.815 689.568 476.311 681.222 467.965C678.718 465.449 677.042 461.693 676.2 456.69C674.545 452.521 678.305 440.427 687.485 420.416C705.011 383.721 716.289 361.201 721.311 352.855C726.311 345.344 728.815 338.245 728.815 331.575C729.642 322.41 724.214 310.73 712.537 296.54C687.485 264.841 662.854 254.001 638.651 264.014ZM621.103 329.066C633.629 324.071 642.388 323.237 647.396 326.557C650.741 329.081 650.741 337.419 647.396 351.586C638.215 379.117 626.11 405.393 611.088 430.422C601.908 441.269 576.863 450.861 535.961 459.199C515.909 462.527 495.03 463.361 473.331 461.708C473.331 460.04 473.331 458.365 473.331 456.69C474.159 432.51 472.068 411.237 467.068 392.878C462.888 380.364 457.467 368.69 450.79 357.844C470.82 363.688 491.692 364.942 513.421 361.592C549.3 354.922 585.194 344.082 621.103 329.066ZM601.073 649.366C636.975 637.7 697.921 625.606 783.912 613.092C806.46 608.923 822.738 617.268 832.745 638.121C837.768 648.968 840.279 661.054 840.279 674.395C836.099 741.97 830.678 792.855 824.001 827.048C817.324 865.418 806.046 910.045 790.175 960.93C785.994 971.769 781.408 979.274 776.408 983.45C769.731 986.793 762.213 986.379 753.867 982.21C722.138 964.678 699.597 950.075 686.244 938.41C682.064 934.233 677.891 930.898 673.718 928.404C672.042 924.235 669.531 920.479 666.185 917.129C663.681 912.96 662.019 907.537 661.192 900.866C659.516 896.697 662.019 883.769 668.696 862.083C682.049 822.045 690.808 797.437 694.989 788.265C698.334 779.101 700.011 771.168 700.011 764.476C700.011 757.805 693.748 748.213 681.222 735.698C654.493 709.017 630.704 701.099 609.847 711.939C560.585 736.968 513.834 759.075 469.579 778.26C467.903 765.745 465.392 756.994 462.046 751.991C457.888 746.973 452.888 743.631 447.038 741.956C440.362 740.303 434.099 739.056 428.249 738.207C423.242 738.207 419.483 736.96 416.964 734.459C412.784 731.965 411.122 739.056 411.972 755.739C411.972 776.599 415.723 796.197 423.227 814.534C431.573 832.892 437.422 852.505 440.775 873.358C444.099 891.702 446.189 922.139 447.038 964.678C447.866 975.518 452.039 985.531 459.565 994.725C465.392 1000.55 472.903 1003.88 482.105 1004.73C489.609 1005.56 494.609 1004.72 497.113 1002.22C499.632 1000.55 500.894 995.964 500.894 988.468C500.894 980.948 500.053 970.935 498.383 958.421C545.962 944.254 598.148 940.505 654.929 947.176C664.929 962.184 676.621 976.779 689.996 990.947C703.349 1006.8 720.041 1022.24 740.071 1037.26C758.446 1052.26 771.807 1063.95 780.16 1072.29C785.16 1077.29 789.333 1079.79 792.686 1079.79C796.009 1080.63 800.603 1078.97 806.453 1074.8C824.828 1055.61 839.85 1038.09 851.535 1022.23C862.384 1005.54 871.572 978.853 879.098 942.158C884.947 902.962 889.955 865.846 894.135 830.797C897.458 791.6 900.797 759.075 904.15 733.219C907.473 709.017 911.654 684.829 916.676 660.641C919.999 645.633 919.165 633.539 914.165 624.367C907.488 612.679 899.548 604.341 890.353 599.338C863.647 585.156 843.189 576.397 828.994 573.069C817.31 568.9 809.798 566.812 806.453 566.812C797.272 565.144 783.919 564.716 766.393 565.543C709.612 566.391 653.253 572.235 597.321 583.075C528.015 596.416 473.745 613.092 434.512 633.103C392.754 653.137 359.364 672.742 334.334 691.927C325.131 697.771 315.944 706.53 306.771 718.196C299.245 699.011 290.057 681.08 279.208 664.389C269.2 649.381 267.11 638.947 272.944 633.103C276.29 628.108 277.553 624.773 276.726 623.098C275.049 621.43 271.704 623.098 266.681 628.115C259.178 633.959 253.749 641.884 250.404 651.875C246.223 662.722 245.396 676.07 247.922 691.927C256.253 744.465 255.411 786.583 245.411 818.282C233.712 854.158 233.712 892.115 245.411 932.152C256.26 975.518 275.463 1011.39 303.019 1039.77C311.365 1048.1 317.628 1052.69 321.808 1053.52C325.131 1053.52 328.049 1051.02 330.552 1046.02C333.071 1041 333.492 1030.57 331.823 1014.74C327.642 975.518 326.808 934.226 329.312 890.86C332.657 844.152 330.567 802.861 323.049 766.985C320.545 755.319 317.207 744.479 313.034 734.459C321.379 725.294 331.823 718.196 344.349 713.178C365.206 703.187 389.408 697.764 416.964 696.915C440.34 700.265 465.392 696.93 492.12 686.91C525.518 671.901 561.841 659.387 601.073 649.366ZM599.832 883.364C592.306 890.86 572.683 897.118 540.954 902.135C524.248 904.637 507.549 904.637 490.85 902.135C486.692 877.106 483.354 857.088 480.835 842.072C476.655 827.89 473.317 815.788 470.82 805.768C489.196 811.612 507.985 812.04 527.187 807.037C553.067 797.85 578.946 786.583 604.825 773.242C613.171 768.246 619.847 766.999 624.855 769.493C628.201 770.32 629.035 779.079 627.366 795.762C620.689 825.794 611.509 854.992 599.832 883.364Z"
  />
</svg>